<svg viewBox="1.3837002495324187 -58.824000000000005 181.7725041119919 63.47579849684658" width="181.7725041119919" height="63.47579849684658" xmlns="http://www.w3.org/2000/svg"><path d="M51.912-51.624C52.704-51.408 53.352-51.264 53.856-51.912C54.432-52.488 53.856-53.064 53.640-53.640C53.496-54.000 53.280-54.288 53.064-54.504C50.544-57.312 47.448-58.824 43.632-58.824C41.328-58.824 39.168-58.104 36.864-58.104C35.136-58.104 33.336-58.248 31.608-57.744C30.816-57.528 30.312-57.744 29.664-57.960C28.224-58.392 27.072-59.544 25.848-57.672C25.632-57.456 25.416-57.456 25.128-57.528C22.608-57.744 20.448-56.664 17.928-57.240C17.280-57.384 16.776-57.024 16.560-56.088C16.344-55.008 16.992-54.576 17.640-54.000C18.792-52.920 19.512-51.480 21.240-50.976C21.744-50.760 22.248-50.184 21.960-49.392C21.456-48.240 21.168-47.016 20.664-45.864C18.072-39.600 14.688-33.840 11.880-27.720C10.224-24.048 8.424-20.664 6.912-16.992C5.760-14.040 4.752-11.016 3.312-8.208L1.872-4.896C0.936-2.376 1.296-1.080 3.384 0.648C4.536 1.584 6.048 2.304 6.840 3.384C8.208 5.112 9.576 4.752 10.944 4.176C14.328 2.520 17.928 2.520 21.384 1.728C25.704 0.648 29.808 0 34.056-1.080C34.920-1.296 35.712-1.512 36.504-1.800C37.872-2.304 38.016-3.240 36.936-4.176C36.144-4.896 35.208-5.400 34.200-5.688C30.744-6.480 27.216-6.264 23.760-5.904C20.304-5.544 16.848-4.680 13.320-4.392C11.664-4.176 11.448-4.392 12.240-5.904C12.888-7.560 13.896-8.928 14.544-10.584C16.272-15.120 18.288-19.512 20.592-23.760C20.808-24.120 21.024-24.336 21.384-24.552C22.752-25.344 24.120-25.056 25.488-25.272C28.944-25.632 32.256-26.928 35.784-25.920C36.576-25.704 37.152-26.280 36.936-26.928C36.360-28.872 35.496-30.816 33.552-31.896C31.464-32.976 29.232-33.264 26.856-32.832C26.280-32.616 25.704-32.688 25.200-32.616C25.128-33.264 25.416-33.624 25.632-34.128C27.000-36.936 28.296-39.600 29.664-42.264C30.744-44.280 31.392-46.296 32.184-48.312C32.544-49.104 32.760-49.968 33.840-50.040C36.360-50.256 38.808-50.472 41.328-51.264C44.568-52.128 47.952-51.336 51.336-51.840C51.552-51.840 51.696-51.696 51.912-51.624ZM63.720-6.624C63.360-7.416 63.504-7.416 63.720-7.920C64.512-10.224 65.736-12.240 66.816-14.472C68.184-17.064 69.624-19.440 72.144-21.384C73.296-22.176 72.792-24.984 71.568-25.488C69.912-26.280 68.328-26.856 66.600-26.928C65.520-27.000 64.440-27.144 63.648-26.064C62.784-24.624 61.848-23.256 60.768-21.888C57.384-17.856 53.568-14.184 49.752-10.440C48.960-9.648 48.168-8.856 47.016-8.352C47.376-10.584 48.024-12.384 49.176-14.112C51.552-17.568 53.856-20.880 56.808-23.976C59.760-27.144 62.856-30.024 66.528-32.328C67.392-32.832 68.040-32.616 68.832-32.256C69.408-31.896 70.056-31.320 69.696-30.384C69.624-30.096 69.480-29.952 69.840-29.736C70.776-29.160 71.568-29.520 72.360-30.024C73.080-30.528 73.296-31.176 72.936-31.968C72.360-33.192 71.712-34.416 70.488-35.064C67.536-36.720 64.512-38.448 60.984-38.664L59.040-38.664C56.808-38.160 55.224-37.080 53.712-35.568C50.544-32.184 47.520-29.016 44.856-25.344C41.760-21.312 38.808-17.424 37.872-12.240C37.656-11.160 37.656-10.008 37.800-8.784C39.168-5.832 40.320-2.880 43.560-1.368C45.072-0.576 46.368-0.432 47.736-1.512C49.968-3.312 51.912-5.400 53.424-7.848L55.800-11.016C55.296-8.712 55.008-6.480 55.512-4.248C56.088-1.368 59.616 0.720 62.424-0.216C63.648-0.576 64.872-1.152 66.024-1.944C70.200-4.608 73.728-6.264 76.968-9.864C77.976-10.872 79.776-12.024 78.480-14.040L78.480-14.328C71.352-11.016 69.336-8.568 63.720-6.624ZM79.992 0.360C80.640-0.144 81.576-0.864 80.928-1.656C80.136-2.736 80.784-3.168 81.432-3.672C81.864-3.888 82.152-4.176 82.368-4.536C82.944-5.760 83.880-6.624 84.816-7.488C84.888-7.776 84.888-7.920 85.392-8.136L85.392-5.616C87.048-1.872 90.216-0.792 93.888-0.504C95.040-0.288 96.120 0 97.344-0.288C98.496-0.648 98.712-1.584 99.360-2.232C100.440-3.384 101.448-4.536 102.384-5.688C107.280-11.520 111.312-17.640 113.976-24.840C114.912-27.360 115.560-29.880 116.640-32.400C117.432-34.056 116.928-34.992 115.416-35.856C114.264-36.504 112.968-37.008 111.888-37.800C110.520-38.664 109.440-38.448 108.360-37.656C104.616-35.064 101.232-32.184 97.848-29.016C94.608-25.920 91.512-22.752 88.128-19.512L88.056-19.440L88.056-19.512C90.072-24.624 92.376-29.376 95.040-33.984C97.272-37.800 99.864-41.400 101.592-45.504C102.096-46.728 102.744-47.880 103.680-48.960C103.896-49.248 104.112-49.824 104.472-49.608C105.696-49.104 105.984-50.040 106.200-50.832C106.416-51.912 106.272-52.848 105.048-53.208C104.400-53.424 104.112-53.784 103.608-54.144C103.104-54.504 102.816-55.008 102.240-55.008C100.872-55.080 99.864-55.656 98.640-55.944C97.272-56.304 96.264-56.160 95.184-55.080C93.888-53.640 92.808-52.128 92.016-50.472L82.944-31.680C81.144-28.008 79.416-24.480 77.904-20.808C76.536-17.712 75.672-14.616 74.160-11.664C73.512-10.512 73.080-9.288 72.576-8.064C71.496-5.544 72.000-4.176 74.088-2.376C75.312-1.296 76.464-0.288 77.832 0.648L78.120 0.648C78.696 0 79.344 0.576 79.992 0.360ZM88.704-9.936C88.776-11.448 89.136-12.888 90.216-14.112C94.248-18.720 98.136-23.112 102.744-27.144C103.248-27.504 103.680-27.864 104.256-28.368C104.472-27.720 104.256-27.288 104.040-26.928C101.160-21.456 98.424-16.128 94.176-11.520C93.096-10.368 91.800-9.576 90.360-8.784C89.136-8.280 88.632-8.640 88.704-9.936ZM138.816-6.624C138.456-7.416 138.600-7.416 138.816-7.920C139.608-10.224 140.832-12.240 141.912-14.472C143.280-17.064 144.720-19.440 147.240-21.384C148.392-22.176 147.888-24.984 146.664-25.488C145.008-26.280 143.424-26.856 141.696-26.928C140.616-27.000 139.536-27.144 138.744-26.064C137.880-24.624 136.944-23.256 135.864-21.888C132.480-17.856 128.664-14.184 124.848-10.440C124.056-9.648 123.264-8.856 122.112-8.352C122.472-10.584 123.120-12.384 124.272-14.112C126.648-17.568 128.952-20.880 131.904-23.976C134.856-27.144 137.952-30.024 141.624-32.328C142.488-32.832 143.136-32.616 143.928-32.256C144.504-31.896 145.152-31.320 144.792-30.384C144.720-30.096 144.576-29.952 144.936-29.736C145.872-29.160 146.664-29.520 147.456-30.024C148.176-30.528 148.392-31.176 148.032-31.968C147.456-33.192 146.808-34.416 145.584-35.064C142.632-36.720 139.608-38.448 136.080-38.664L134.136-38.664C131.904-38.160 130.320-37.080 128.808-35.568C125.640-32.184 122.616-29.016 119.952-25.344C116.856-21.312 113.904-17.424 112.968-12.240C112.752-11.160 112.752-10.008 112.896-8.784C114.264-5.832 115.416-2.880 118.656-1.368C120.168-0.576 121.464-0.432 122.832-1.512C125.064-3.312 127.008-5.400 128.520-7.848L130.896-11.016C130.392-8.712 130.104-6.480 130.608-4.248C131.184-1.368 134.712 0.720 137.520-0.216C138.744-0.576 139.968-1.152 141.120-1.944C145.296-4.608 148.824-6.264 152.064-9.864C153.072-10.872 154.872-12.024 153.576-14.040L153.576-14.328C146.448-11.016 144.432-8.568 138.816-6.624ZM151.344-7.848C152.280-4.104 154.296-1.656 158.256-1.008C158.472-1.008 158.400-0.864 158.616-0.792L160.200-0.792C162.000-1.296 163.512-2.160 165.168-2.952C170.640-5.472 174.960-8.856 178.056-14.040C178.632-15.120 179.280-15.840 180.216-16.632C180.576-16.920 180.936-17.280 180.648-17.784C180.288-18.288 179.784-18.000 179.424-17.784C178.632-17.280 177.840-17.280 177.048-16.704C174.240-14.472 171.288-12.816 168.480-10.728C166.680-9.360 164.808-8.208 162.864-7.128C161.784-6.480 160.632-5.832 159.264-6.120C158.904-6.192 158.544-6.192 158.328-6.768C158.256-7.704 157.968-8.640 158.184-9.720C158.976-14.328 160.920-18.288 162.864-22.392C164.520-25.776 166.176-29.088 168.120-32.328C171.216-37.800 174.744-42.912 178.416-47.880C178.920-48.528 179.640-49.104 180.432-49.608C180.792-49.824 181.224-50.112 181.440-49.320C181.512-48.960 181.800-48.888 182.304-49.104C183.096-49.680 183.528-51.840 182.736-52.632C181.584-53.856 180.216-54.720 178.848-55.512C177.768-56.088 176.976-56.736 175.608-56.952C173.520-57.240 172.368-55.872 171.216-54.504C168.552-51.408 165.816-48.384 164.016-44.640C162.216-40.824 159.264-37.656 157.536-33.696C155.160-28.512 152.568-23.616 151.200-18.072C150.912-17.136 151.200-15.984 150.408-15.192L150.408-14.400C150.840-13.320 150.840-12.240 150.408-11.160L150.408-10.368C151.272-9.792 151.128-8.712 151.344-7.848Z"/></svg>